<mxfile host="www.draw.io" modified="2020-08-03T02:49:23.612Z" agent="5.0 (Windows NT 10.0; Win64; x64) AppleWebKit/537.36 (KHTML, like Gecko) Chrome/74.0.3729.131 Safari/537.36" etag="KF-B7KE8G043qE92pgar" version="13.5.7" type="github">
  <diagram id="P1mq1N7akYFhdibZ3TWp" name="Page-1">
    <mxGraphModel dx="867" dy="762" grid="1" gridSize="10" guides="1" tooltips="1" connect="1" arrows="1" fold="1" page="1" pageScale="1" pageWidth="827" pageHeight="1169" math="0" shadow="0">
      <root>
        <mxCell id="0" />
        <mxCell id="1" parent="0" />
        <mxCell id="DYGcpya1Go8vzDIOZUxl-10" value="" style="rounded=1;whiteSpace=wrap;html=1;" vertex="1" parent="1">
          <mxGeometry x="160" y="230" width="150" height="190" as="geometry" />
        </mxCell>
        <mxCell id="DYGcpya1Go8vzDIOZUxl-1" value="scheduler" style="rounded=1;whiteSpace=wrap;html=1;" vertex="1" parent="1">
          <mxGeometry x="180" y="320" width="120" height="30" as="geometry" />
        </mxCell>
        <mxCell id="DYGcpya1Go8vzDIOZUxl-2" value="controller-manager" style="rounded=1;whiteSpace=wrap;html=1;" vertex="1" parent="1">
          <mxGeometry x="180" y="360" width="120" height="30" as="geometry" />
        </mxCell>
        <mxCell id="DYGcpya1Go8vzDIOZUxl-3" value="apiserver" style="rounded=1;whiteSpace=wrap;html=1;" vertex="1" parent="1">
          <mxGeometry x="180" y="280" width="120" height="30" as="geometry" />
        </mxCell>
        <mxCell id="DYGcpya1Go8vzDIOZUxl-4" value="scheduler" style="rounded=1;whiteSpace=wrap;html=1;" vertex="1" parent="1">
          <mxGeometry x="354" y="320" width="120" height="30" as="geometry" />
        </mxCell>
        <mxCell id="DYGcpya1Go8vzDIOZUxl-5" value="controller-manager" style="rounded=1;whiteSpace=wrap;html=1;" vertex="1" parent="1">
          <mxGeometry x="354" y="360" width="120" height="30" as="geometry" />
        </mxCell>
        <mxCell id="DYGcpya1Go8vzDIOZUxl-6" value="apiserver" style="rounded=1;whiteSpace=wrap;html=1;" vertex="1" parent="1">
          <mxGeometry x="354" y="280" width="120" height="30" as="geometry" />
        </mxCell>
        <mxCell id="DYGcpya1Go8vzDIOZUxl-7" value="scheduler" style="rounded=1;whiteSpace=wrap;html=1;" vertex="1" parent="1">
          <mxGeometry x="560" y="320" width="120" height="30" as="geometry" />
        </mxCell>
        <mxCell id="DYGcpya1Go8vzDIOZUxl-8" value="controller-manager" style="rounded=1;whiteSpace=wrap;html=1;" vertex="1" parent="1">
          <mxGeometry x="560" y="360" width="120" height="30" as="geometry" />
        </mxCell>
        <mxCell id="DYGcpya1Go8vzDIOZUxl-9" value="apiserver" style="rounded=1;whiteSpace=wrap;html=1;" vertex="1" parent="1">
          <mxGeometry x="560" y="280" width="120" height="30" as="geometry" />
        </mxCell>
      </root>
    </mxGraphModel>
  </diagram>
</mxfile>
